<svg width="1000" height="1000" viewBox="0 0 1000 1000" fill="none" xmlns="http://www.w3.org/2000/svg">
<g clip-path="url(#clip0_4703_56)">
<rect width="1000" height="1000" fill="white"/>
<circle cx="500" cy="500" r="500" fill="white"/>
<path d="M69 490.993C69 487.905 69 484.816 69 481.727C72.0917 478.786 75.4779 476.138 78.1279 472.903C120.97 419.66 171.468 372.742 232.125 334.354C342.838 264.197 464.887 235.517 600.628 263.756C709.721 286.553 795.848 341.414 868.43 413.041C890.66 434.956 910.241 458.783 931 481.727C931 484.816 931 487.905 931 490.993C927.908 494.523 924.522 498.053 921.872 501.877C874.76 569.534 816.607 628.807 742.405 675.872C599.892 766.326 435.442 770.738 287.481 687.785C234.628 658.075 188.252 621.747 148.207 579.829C120.529 551.002 95.206 520.556 69 490.993ZM500.074 346.562C402.022 346.562 321.048 415.248 320.607 498.789C320.165 583.653 400.697 653.516 498.749 653.663C597.978 653.81 678.657 585.124 678.804 500.701C678.951 415.689 598.714 346.562 500.074 346.562Z" fill="black"/>
<ellipse cx="500.5" cy="500" rx="195.5" ry="172" fill="black"/>
<path d="M403.371 401C502.507 401 583.148 470.329 583 555.59C583 640.408 501.767 709.147 402.039 709C303.495 708.852 222.558 638.638 223.002 553.672C223.594 469.887 304.826 401 403.371 401ZM511.533 555.442C511.533 502.929 464.628 462.364 403.667 462.364C342.409 462.364 295.061 502.487 295.061 554.705C295.061 607.218 341.965 647.783 402.927 647.783C464.184 647.783 511.385 607.661 511.533 555.442Z" fill="white"/>
<path d="M512 555.872C512 608.535 464.536 649.148 403.129 649C342.019 649 295 608.089 295 555.128C295 502.465 342.464 461.852 403.871 462C464.981 462 512 502.911 512 555.872Z" fill="black"/>
</g>
<defs>
<clipPath id="clip0_4703_56">
<rect width="1000" height="1000" fill="white"/>
</clipPath>
</defs>
</svg>
