<svg width="1000" height="1000" viewBox="0 0 1000 1000" fill="none" xmlns="http://www.w3.org/2000/svg">
<g clip-path="url(#clip0_4703_91)">
<rect width="1000" height="1000" fill="white"/>
<circle cx="500" cy="500" r="500" fill="white"/>
<path d="M69 490.993C69 487.905 69 484.816 69 481.727C72.0917 478.786 75.4779 476.138 78.1279 472.903C120.97 419.66 171.468 372.742 232.125 334.354C342.838 264.197 464.887 235.517 600.628 263.756C709.721 286.553 795.848 341.414 868.43 413.041C890.66 434.956 910.241 458.783 931 481.727C931 484.816 931 487.905 931 490.993C927.908 494.523 924.522 498.053 921.872 501.877C874.76 569.534 816.607 628.807 742.405 675.872C599.892 766.326 435.442 770.738 287.481 687.785C234.628 658.075 188.252 621.747 148.207 579.829C120.529 551.002 95.206 520.556 69 490.993ZM500.074 346.562C402.022 346.562 321.048 415.248 320.607 498.789C320.165 583.653 400.697 653.516 498.749 653.663C597.978 653.81 678.657 585.124 678.804 500.701C678.951 415.689 598.714 346.562 500.074 346.562Z" fill="black"/>
<ellipse cx="500.5" cy="500" rx="195.5" ry="172" fill="black"/>
<path d="M517.371 425C616.507 425 697.148 494.329 697 579.59C697 664.408 615.767 733.147 516.039 733C417.495 732.852 336.558 662.638 337.002 577.672C337.594 493.887 418.826 425 517.371 425ZM625.533 579.442C625.533 526.929 578.628 486.364 517.667 486.364C456.409 486.364 409.061 526.487 409.061 578.705C409.061 631.218 455.965 671.783 516.927 671.783C578.184 671.783 625.385 631.661 625.533 579.442Z" fill="white"/>
<path d="M626 579.872C626 632.535 578.536 673.148 517.129 673C456.019 673 409 632.089 409 579.128C409 526.465 456.464 485.852 517.871 486C578.981 486 626 526.911 626 579.872Z" fill="black"/>
</g>
<defs>
<clipPath id="clip0_4703_91">
<rect width="1000" height="1000" fill="white"/>
</clipPath>
</defs>
</svg>
