<svg width="1000" height="1000" viewBox="0 0 1000 1000" fill="none" xmlns="http://www.w3.org/2000/svg">
<g clip-path="url(#clip0_4703_98)">
<rect width="1000" height="1000" fill="white"/>
<circle cx="500" cy="500" r="500" fill="white"/>
<path d="M69 490.993C69 487.905 69 484.816 69 481.727C72.0917 478.786 75.4779 476.138 78.1279 472.903C120.97 419.66 171.468 372.742 232.125 334.354C342.838 264.197 464.887 235.517 600.628 263.756C709.721 286.553 795.848 341.414 868.43 413.041C890.66 434.956 910.241 458.783 931 481.727C931 484.816 931 487.905 931 490.993C927.908 494.523 924.522 498.053 921.872 501.877C874.76 569.534 816.607 628.807 742.405 675.872C599.892 766.326 435.442 770.738 287.481 687.785C234.628 658.075 188.252 621.747 148.207 579.829C120.529 551.002 95.206 520.556 69 490.993ZM500.074 346.562C402.022 346.562 321.048 415.248 320.607 498.789C320.165 583.653 400.697 653.516 498.749 653.663C597.978 653.81 678.657 585.124 678.804 500.701C678.951 415.689 598.714 346.562 500.074 346.562Z" fill="black"/>
<ellipse cx="500.5" cy="500" rx="195.5" ry="172" fill="black"/>
<path d="M537.371 423C636.507 423 717.148 492.329 717 577.59C717 662.408 635.767 731.147 536.039 731C437.495 730.852 356.558 660.638 357.002 575.672C357.594 491.887 438.826 423 537.371 423ZM645.533 577.442C645.533 524.929 598.628 484.364 537.667 484.364C476.409 484.364 429.061 524.487 429.061 576.705C429.061 629.218 475.965 669.783 536.927 669.783C598.184 669.783 645.385 629.661 645.533 577.442Z" fill="white"/>
<path d="M646 577.872C646 630.535 598.536 671.148 537.129 671C476.019 671 429 630.089 429 577.128C429 524.465 476.464 483.852 537.871 484C598.981 484 646 524.911 646 577.872Z" fill="black"/>
</g>
<defs>
<clipPath id="clip0_4703_98">
<rect width="1000" height="1000" fill="white"/>
</clipPath>
</defs>
</svg>
