<svg width="1000" height="1000" viewBox="0 0 1000 1000" fill="none" xmlns="http://www.w3.org/2000/svg">
<g clip-path="url(#clip0_4714_77)">
<rect width="1000" height="1000" fill="white"/>
<circle cx="500" cy="500" r="500" fill="white"/>
<path d="M69 490.993C69 487.905 69 484.816 69 481.727C72.0917 478.786 75.4779 476.138 78.1279 472.903C120.97 419.66 171.468 372.742 232.125 334.354C342.838 264.197 464.887 235.517 600.628 263.756C709.721 286.553 795.848 341.414 868.43 413.041C890.66 434.956 910.241 458.783 931 481.727C931 484.816 931 487.905 931 490.993C927.908 494.523 924.522 498.053 921.872 501.877C874.76 569.534 816.607 628.807 742.405 675.872C599.892 766.326 435.442 770.738 287.481 687.785C234.628 658.075 188.252 621.747 148.207 579.829C120.529 551.002 95.206 520.556 69 490.993ZM500.074 346.562C402.022 346.562 321.048 415.248 320.607 498.789C320.165 583.653 400.697 653.516 498.749 653.663C597.978 653.81 678.657 585.124 678.804 500.701C678.952 415.689 598.714 346.562 500.074 346.562Z" fill="black"/>
<ellipse cx="500.5" cy="500" rx="195.5" ry="172" fill="black"/>
<path d="M542.371 420C641.507 420 722.148 489.329 722 574.59C722 659.408 640.767 728.147 541.039 728C442.495 727.852 361.558 657.638 362.002 572.672C362.594 488.887 443.826 420 542.371 420ZM650.533 574.442C650.533 521.929 603.628 481.364 542.667 481.364C481.409 481.364 434.061 521.487 434.061 573.705C434.061 626.218 480.965 666.783 541.927 666.783C603.184 666.783 650.385 626.661 650.533 574.442Z" fill="white"/>
<path d="M651 574.872C651 627.535 603.536 668.148 542.129 668C481.019 668 434 627.089 434 574.128C434 521.465 481.464 480.852 542.871 481C603.981 481 651 521.911 651 574.872Z" fill="black"/>
</g>
<defs>
<clipPath id="clip0_4714_77">
<rect width="1000" height="1000" fill="white"/>
</clipPath>
</defs>
</svg>
