<svg width="1000" height="1000" viewBox="0 0 1000 1000" fill="none" xmlns="http://www.w3.org/2000/svg">
<g clip-path="url(#clip0_4714_91)">
<rect width="1000" height="1000" fill="white"/>
<circle cx="500" cy="500" r="500" fill="white"/>
<path d="M69 490.993C69 487.905 69 484.816 69 481.727C72.0917 478.786 75.4779 476.138 78.1279 472.903C120.97 419.66 171.468 372.742 232.125 334.354C342.838 264.197 464.887 235.517 600.628 263.756C709.721 286.553 795.848 341.414 868.43 413.041C890.66 434.956 910.241 458.783 931 481.727C931 484.816 931 487.905 931 490.993C927.908 494.523 924.522 498.053 921.872 501.877C874.76 569.534 816.607 628.807 742.405 675.872C599.892 766.326 435.442 770.738 287.481 687.785C234.628 658.075 188.252 621.747 148.207 579.829C120.529 551.002 95.206 520.556 69 490.993ZM500.074 346.562C402.022 346.562 321.048 415.248 320.607 498.789C320.165 583.653 400.697 653.516 498.749 653.663C597.978 653.81 678.657 585.124 678.804 500.701C678.952 415.689 598.714 346.562 500.074 346.562Z" fill="black"/>
<ellipse cx="500.5" cy="500" rx="195.5" ry="172" fill="black"/>
<path d="M599.371 396C698.507 396 779.148 465.329 779 550.59C779 635.408 697.767 704.147 598.039 704C499.495 703.852 418.558 633.638 419.002 548.672C419.594 464.887 500.826 396 599.371 396ZM707.533 550.442C707.533 497.929 660.628 457.364 599.667 457.364C538.409 457.364 491.061 497.487 491.061 549.705C491.061 602.218 537.965 642.783 598.927 642.783C660.184 642.783 707.385 602.661 707.533 550.442Z" fill="white"/>
<path d="M708 550.872C708 603.535 660.536 644.148 599.129 644C538.019 644 491 603.089 491 550.128C491 497.465 538.464 456.852 599.871 457C660.981 457 708 497.911 708 550.872Z" fill="black"/>
</g>
<defs>
<clipPath id="clip0_4714_91">
<rect width="1000" height="1000" fill="white"/>
</clipPath>
</defs>
</svg>
