<svg width="1000" height="1000" viewBox="0 0 1000 1000" fill="none" xmlns="http://www.w3.org/2000/svg">
<g clip-path="url(#clip0_4703_119)">
<rect width="1000" height="1000" fill="white"/>
<circle cx="500" cy="500" r="500" fill="white"/>
<path d="M69 490.993C69 487.905 69 484.816 69 481.727C72.0917 478.786 75.4779 476.138 78.1279 472.903C120.97 419.66 171.468 372.742 232.125 334.354C342.838 264.197 464.887 235.517 600.628 263.756C709.721 286.553 795.848 341.414 868.43 413.041C890.66 434.956 910.241 458.783 931 481.727C931 484.816 931 487.905 931 490.993C927.908 494.523 924.522 498.053 921.872 501.877C874.76 569.534 816.607 628.807 742.405 675.872C599.892 766.326 435.442 770.738 287.481 687.785C234.628 658.075 188.252 621.747 148.207 579.829C120.529 551.002 95.206 520.556 69 490.993ZM500.074 346.562C402.022 346.562 321.048 415.248 320.607 498.789C320.165 583.653 400.697 653.516 498.749 653.663C597.978 653.81 678.657 585.124 678.804 500.701C678.951 415.689 598.714 346.562 500.074 346.562Z" fill="black"/>
<ellipse cx="500.5" cy="500" rx="195.5" ry="172" fill="black"/>
<path d="M615.371 389C714.507 389 795.148 458.329 795 543.59C795 628.408 713.767 697.147 614.039 697C515.495 696.852 434.558 626.638 435.002 541.672C435.594 457.887 516.826 389 615.371 389ZM723.533 543.442C723.533 490.929 676.628 450.364 615.667 450.364C554.409 450.364 507.061 490.487 507.061 542.705C507.061 595.218 553.965 635.783 614.927 635.783C676.184 635.783 723.385 595.661 723.533 543.442Z" fill="white"/>
<path d="M724 543.872C724 596.535 676.536 637.148 615.129 637C554.019 637 507 596.089 507 543.128C507 490.465 554.464 449.852 615.871 450C676.981 450 724 490.911 724 543.872Z" fill="black"/>
</g>
<defs>
<clipPath id="clip0_4703_119">
<rect width="1000" height="1000" fill="white"/>
</clipPath>
</defs>
</svg>
