<svg width="1000" height="1000" viewBox="0 0 1000 1000" fill="none" xmlns="http://www.w3.org/2000/svg">
<g clip-path="url(#clip0_4714_42)">
<rect width="1000" height="1000" fill="white"/>
<circle cx="500" cy="500" r="500" fill="white"/>
<path d="M69 490.993C69 487.905 69 484.816 69 481.727C72.0917 478.786 75.4779 476.138 78.1279 472.903C120.97 419.66 171.468 372.742 232.125 334.354C342.838 264.197 464.887 235.517 600.628 263.756C709.721 286.553 795.848 341.414 868.43 413.041C890.66 434.956 910.241 458.783 931 481.727C931 484.816 931 487.905 931 490.993C927.908 494.523 924.522 498.053 921.872 501.877C874.76 569.534 816.607 628.807 742.405 675.872C599.892 766.326 435.442 770.738 287.481 687.785C234.628 658.075 188.252 621.747 148.207 579.829C120.529 551.002 95.206 520.556 69 490.993ZM500.074 346.562C402.022 346.562 321.048 415.248 320.607 498.789C320.165 583.653 400.697 653.516 498.749 653.663C597.978 653.81 678.657 585.124 678.804 500.701C678.952 415.689 598.714 346.562 500.074 346.562Z" fill="black"/>
<ellipse cx="500.5" cy="500" rx="195.5" ry="172" fill="black"/>
<path d="M416.371 403C515.507 403 596.148 472.329 596 557.59C596 642.408 514.767 711.147 415.039 711C316.495 710.852 235.558 640.638 236.002 555.672C236.594 471.887 317.826 403 416.371 403ZM524.533 557.442C524.533 504.929 477.628 464.364 416.667 464.364C355.409 464.364 308.061 504.487 308.061 556.705C308.061 609.218 354.965 649.783 415.927 649.783C477.184 649.783 524.385 609.661 524.533 557.442Z" fill="white"/>
<path d="M525 557.872C525 610.535 477.536 651.148 416.129 651C355.019 651 308 610.089 308 557.128C308 504.465 355.464 463.852 416.871 464C477.981 464 525 504.911 525 557.872Z" fill="black"/>
</g>
<defs>
<clipPath id="clip0_4714_42">
<rect width="1000" height="1000" fill="white"/>
</clipPath>
</defs>
</svg>
