<svg width="1000" height="1000" viewBox="0 0 1000 1000" fill="none" xmlns="http://www.w3.org/2000/svg">
<g clip-path="url(#clip0_4703_63)">
<rect width="1000" height="1000" fill="white"/>
<circle cx="500" cy="500" r="500" fill="white"/>
<path d="M69 490.993C69 487.905 69 484.816 69 481.727C72.0917 478.786 75.4779 476.138 78.1279 472.903C120.97 419.66 171.468 372.742 232.125 334.354C342.838 264.197 464.887 235.517 600.628 263.756C709.721 286.553 795.848 341.414 868.43 413.041C890.66 434.956 910.241 458.783 931 481.727C931 484.816 931 487.905 931 490.993C927.908 494.523 924.522 498.053 921.872 501.877C874.76 569.534 816.607 628.807 742.405 675.872C599.892 766.326 435.442 770.738 287.481 687.785C234.628 658.075 188.252 621.747 148.207 579.829C120.529 551.002 95.206 520.556 69 490.993ZM500.074 346.562C402.022 346.562 321.048 415.248 320.607 498.789C320.165 583.653 400.697 653.516 498.749 653.663C597.978 653.81 678.657 585.124 678.804 500.701C678.951 415.689 598.714 346.562 500.074 346.562Z" fill="black"/>
<ellipse cx="500.5" cy="500" rx="195.5" ry="172" fill="black"/>
<path d="M434.371 411C533.507 411 614.148 480.329 614 565.59C614 650.408 532.767 719.147 433.039 719C334.495 718.852 253.558 648.638 254.002 563.672C254.594 479.887 335.826 411 434.371 411ZM542.533 565.442C542.533 512.929 495.628 472.364 434.667 472.364C373.409 472.364 326.061 512.487 326.061 564.705C326.061 617.218 372.965 657.783 433.927 657.783C495.184 657.783 542.385 617.661 542.533 565.442Z" fill="white"/>
<path d="M543 565.872C543 618.535 495.536 659.148 434.129 659C373.019 659 326 618.089 326 565.128C326 512.465 373.464 471.852 434.871 472C495.981 472 543 512.911 543 565.872Z" fill="black"/>
</g>
<defs>
<clipPath id="clip0_4703_63">
<rect width="1000" height="1000" fill="white"/>
</clipPath>
</defs>
</svg>
