<svg width="1000" height="1000" viewBox="0 0 1000 1000" fill="none" xmlns="http://www.w3.org/2000/svg">
<g clip-path="url(#clip0_4714_49)">
<rect width="1000" height="1000" fill="white"/>
<circle cx="500" cy="500" r="500" fill="white"/>
<path d="M69 490.993C69 487.905 69 484.816 69 481.727C72.0917 478.786 75.4779 476.138 78.1279 472.903C120.97 419.66 171.468 372.742 232.125 334.354C342.838 264.197 464.887 235.517 600.628 263.756C709.721 286.553 795.848 341.414 868.43 413.041C890.66 434.956 910.241 458.783 931 481.727C931 484.816 931 487.905 931 490.993C927.908 494.523 924.522 498.053 921.872 501.877C874.76 569.534 816.607 628.807 742.405 675.872C599.892 766.326 435.442 770.738 287.481 687.785C234.628 658.075 188.252 621.747 148.207 579.829C120.529 551.002 95.206 520.556 69 490.993ZM500.074 346.562C402.022 346.562 321.048 415.248 320.607 498.789C320.165 583.653 400.697 653.516 498.749 653.663C597.978 653.81 678.657 585.124 678.804 500.701C678.952 415.689 598.714 346.562 500.074 346.562Z" fill="black"/>
<ellipse cx="500.5" cy="500" rx="195.5" ry="172" fill="black"/>
<path d="M451.371 413C550.507 413 631.148 482.329 631 567.59C631 652.408 549.767 721.147 450.039 721C351.495 720.852 270.558 650.638 271.002 565.672C271.594 481.887 352.826 413 451.371 413ZM559.533 567.442C559.533 514.929 512.628 474.364 451.667 474.364C390.409 474.364 343.061 514.487 343.061 566.705C343.061 619.218 389.965 659.783 450.927 659.783C512.184 659.783 559.385 619.661 559.533 567.442Z" fill="white"/>
<path d="M560 567.872C560 620.535 512.536 661.148 451.129 661C390.019 661 343 620.089 343 567.128C343 514.465 390.464 473.852 451.871 474C512.981 474 560 514.911 560 567.872Z" fill="black"/>
</g>
<defs>
<clipPath id="clip0_4714_49">
<rect width="1000" height="1000" fill="white"/>
</clipPath>
</defs>
</svg>
