<svg width="1000" height="1000" viewBox="0 0 1000 1000" fill="none" xmlns="http://www.w3.org/2000/svg">
<g clip-path="url(#clip0_4714_56)">
<rect width="1000" height="1000" fill="white"/>
<circle cx="500" cy="500" r="500" fill="white"/>
<path d="M69 490.993C69 487.905 69 484.816 69 481.727C72.0917 478.786 75.4779 476.138 78.1279 472.903C120.97 419.66 171.468 372.742 232.125 334.354C342.838 264.197 464.887 235.517 600.628 263.756C709.721 286.553 795.848 341.414 868.43 413.041C890.66 434.956 910.241 458.783 931 481.727C931 484.816 931 487.905 931 490.993C927.908 494.523 924.522 498.053 921.872 501.877C874.76 569.534 816.607 628.807 742.405 675.872C599.892 766.326 435.442 770.738 287.481 687.785C234.628 658.075 188.252 621.747 148.207 579.829C120.529 551.002 95.206 520.556 69 490.993ZM500.074 346.562C402.022 346.562 321.048 415.248 320.607 498.789C320.165 583.653 400.697 653.516 498.749 653.663C597.978 653.81 678.657 585.124 678.804 500.701C678.952 415.689 598.714 346.562 500.074 346.562Z" fill="black"/>
<ellipse cx="500.5" cy="500" rx="195.5" ry="172" fill="black"/>
<path d="M470.371 422C569.507 422 650.148 491.329 650 576.59C650 661.408 568.767 730.147 469.039 730C370.495 729.852 289.558 659.638 290.002 574.672C290.594 490.887 371.826 422 470.371 422ZM578.533 576.442C578.533 523.929 531.628 483.364 470.667 483.364C409.409 483.364 362.061 523.487 362.061 575.705C362.061 628.218 408.965 668.783 469.927 668.783C531.184 668.783 578.385 628.661 578.533 576.442Z" fill="white"/>
<path d="M579 576.872C579 629.535 531.536 670.148 470.129 670C409.019 670 362 629.089 362 576.128C362 523.465 409.464 482.852 470.871 483C531.981 483 579 523.911 579 576.872Z" fill="black"/>
</g>
<defs>
<clipPath id="clip0_4714_56">
<rect width="1000" height="1000" fill="white"/>
</clipPath>
</defs>
</svg>
