<svg width="1000" height="1000" viewBox="0 0 1000 1000" fill="none" xmlns="http://www.w3.org/2000/svg">
<g clip-path="url(#clip0_4703_77)">
<rect width="1000" height="1000" fill="white"/>
<circle cx="500" cy="500" r="500" fill="white"/>
<path d="M69 490.993C69 487.905 69 484.816 69 481.727C72.0917 478.786 75.4779 476.138 78.1279 472.903C120.97 419.66 171.468 372.742 232.125 334.354C342.838 264.197 464.887 235.517 600.628 263.756C709.721 286.553 795.848 341.414 868.43 413.041C890.66 434.956 910.241 458.783 931 481.727C931 484.816 931 487.905 931 490.993C927.908 494.523 924.522 498.053 921.872 501.877C874.76 569.534 816.607 628.807 742.405 675.872C599.892 766.326 435.442 770.738 287.481 687.785C234.628 658.075 188.252 621.747 148.207 579.829C120.529 551.002 95.206 520.556 69 490.993ZM500.074 346.562C402.022 346.562 321.048 415.248 320.607 498.789C320.165 583.653 400.697 653.516 498.749 653.663C597.978 653.81 678.657 585.124 678.804 500.701C678.951 415.689 598.714 346.562 500.074 346.562Z" fill="black"/>
<ellipse cx="500.5" cy="500" rx="195.5" ry="172" fill="black"/>
<path d="M485.371 418C584.507 418 665.148 487.329 665 572.59C665 657.408 583.767 726.147 484.039 726C385.495 725.852 304.558 655.638 305.002 570.672C305.594 486.887 386.826 418 485.371 418ZM593.533 572.442C593.533 519.929 546.628 479.364 485.667 479.364C424.409 479.364 377.061 519.487 377.061 571.705C377.061 624.218 423.965 664.783 484.927 664.783C546.184 664.783 593.385 624.661 593.533 572.442Z" fill="white"/>
<path d="M594 572.872C594 625.535 546.536 666.148 485.129 666C424.019 666 377 625.089 377 572.128C377 519.465 424.464 478.852 485.871 479C546.981 479 594 519.911 594 572.872Z" fill="black"/>
</g>
<defs>
<clipPath id="clip0_4703_77">
<rect width="1000" height="1000" fill="white"/>
</clipPath>
</defs>
</svg>
