<svg width="1000" height="1000" viewBox="0 0 1000 1000" fill="none" xmlns="http://www.w3.org/2000/svg">
<g clip-path="url(#clip0_4715_273)">
<rect width="1000" height="1000" fill="white"/>
<circle cx="500" cy="500" r="500" fill="white"/>
<path d="M69 490.993C69 487.905 69 484.816 69 481.727C72.0917 478.786 75.4779 476.138 78.1279 472.903C120.97 419.66 171.468 372.742 232.125 334.354C342.838 264.197 464.887 235.517 600.628 263.756C709.721 286.553 795.848 341.414 868.43 413.041C890.66 434.956 910.241 458.783 931 481.727C931 484.816 931 487.905 931 490.993C927.908 494.523 924.522 498.053 921.872 501.877C874.76 569.534 816.607 628.807 742.405 675.872C599.892 766.326 435.442 770.738 287.481 687.785C234.628 658.075 188.252 621.747 148.207 579.829C120.529 551.002 95.206 520.556 69 490.993ZM500.074 346.562C402.022 346.562 321.048 415.248 320.607 498.789C320.165 583.653 400.697 653.516 498.749 653.663C597.978 653.81 678.657 585.124 678.804 500.701C678.952 415.689 598.714 346.562 500.074 346.562Z" fill="black"/>
<ellipse cx="500.5" cy="500" rx="195.5" ry="172" fill="black"/>
<path d="M489.371 423C588.507 423 669.148 492.329 669 577.59C669 662.408 587.767 731.147 488.039 731C389.495 730.852 308.558 660.638 309.002 575.672C309.594 491.887 390.826 423 489.371 423ZM597.533 577.442C597.533 524.929 550.628 484.364 489.667 484.364C428.409 484.364 381.061 524.487 381.061 576.705C381.061 629.218 427.965 669.783 488.927 669.783C550.184 669.783 597.385 629.661 597.533 577.442Z" fill="white"/>
<path d="M598 577.872C598 630.535 550.536 671.148 489.129 671C428.019 671 381 630.089 381 577.128C381 524.465 428.464 483.852 489.871 484C550.981 484 598 524.911 598 577.872Z" fill="black"/>
<path d="M949 484C818.333 596.5 455.8 754 51 484L281 778L648 827.5L805 708.5L949 563V484Z" fill="white"/>
<path d="M51 484C175 414 528.2 316 949 484V399.5L805 287L539 173L220 212.5L51 484Z" fill="white"/>
</g>
<defs>
<clipPath id="clip0_4715_273">
<rect width="1000" height="1000" fill="white"/>
</clipPath>
</defs>
</svg>
