<svg width="1000" height="1000" viewBox="0 0 1000 1000" fill="none" xmlns="http://www.w3.org/2000/svg">
<g clip-path="url(#clip0_4715_294)">
<rect width="1000" height="1000" fill="white"/>
<circle cx="500" cy="500" r="500" fill="white"/>
<path d="M69 490.993C69 487.905 69 484.816 69 481.727C72.0917 478.786 75.4779 476.138 78.1279 472.903C120.97 419.66 171.468 372.742 232.125 334.354C342.838 264.197 464.887 235.517 600.628 263.756C709.721 286.553 795.848 341.414 868.43 413.041C890.66 434.956 910.241 458.783 931 481.727C931 484.816 931 487.905 931 490.993C927.908 494.523 924.522 498.053 921.872 501.877C874.76 569.534 816.607 628.807 742.405 675.872C599.892 766.326 435.442 770.738 287.481 687.785C234.628 658.075 188.252 621.747 148.207 579.829C120.529 551.002 95.206 520.556 69 490.993ZM500.074 346.562C402.022 346.562 321.048 415.248 320.607 498.789C320.165 583.653 400.697 653.516 498.749 653.663C597.978 653.81 678.657 585.124 678.804 500.701C678.952 415.689 598.714 346.562 500.074 346.562Z" fill="black"/>
<ellipse cx="500.5" cy="500" rx="195.5" ry="172" fill="black"/>
<path d="M516.371 419C615.507 419 696.148 488.329 696 573.59C696 658.408 614.767 727.147 515.039 727C416.495 726.852 335.558 656.638 336.002 571.672C336.594 487.887 417.826 419 516.371 419ZM624.533 573.442C624.533 520.929 577.628 480.364 516.667 480.364C455.409 480.364 408.061 520.487 408.061 572.705C408.061 625.218 454.965 665.783 515.927 665.783C577.184 665.783 624.385 625.661 624.533 573.442Z" fill="white"/>
<path d="M625 573.872C625 626.535 577.536 667.148 516.129 667C455.019 667 408 626.089 408 573.128C408 520.465 455.464 479.852 516.871 480C577.981 480 625 520.911 625 573.872Z" fill="black"/>
<path d="M949 484C818.333 596.5 455.8 754 51 484L281 778L648 827.5L805 708.5L949 563V484Z" fill="white"/>
<path d="M51 484C175 414 528.2 316 949 484V399.5L805 287L539 173L220 212.5L51 484Z" fill="white"/>
</g>
<defs>
<clipPath id="clip0_4715_294">
<rect width="1000" height="1000" fill="white"/>
</clipPath>
</defs>
</svg>
