<svg width="1000" height="1000" viewBox="0 0 1000 1000" fill="none" xmlns="http://www.w3.org/2000/svg">
<g clip-path="url(#clip0_4715_322)">
<rect width="1000" height="1000" fill="white"/>
<circle cx="500" cy="500" r="500" fill="white"/>
<path d="M69 490.993C69 487.905 69 484.816 69 481.727C72.0917 478.786 75.4779 476.138 78.1279 472.903C120.97 419.66 171.468 372.742 232.125 334.354C342.838 264.197 464.887 235.517 600.628 263.756C709.721 286.553 795.848 341.414 868.43 413.041C890.66 434.956 910.241 458.783 931 481.727C931 484.816 931 487.905 931 490.993C927.908 494.523 924.522 498.053 921.872 501.877C874.76 569.534 816.607 628.807 742.405 675.872C599.892 766.326 435.442 770.738 287.481 687.785C234.628 658.075 188.252 621.747 148.207 579.829C120.529 551.002 95.206 520.556 69 490.993ZM500.074 346.562C402.022 346.562 321.048 415.248 320.607 498.789C320.165 583.653 400.697 653.516 498.749 653.663C597.978 653.81 678.657 585.124 678.804 500.701C678.952 415.689 598.714 346.562 500.074 346.562Z" fill="black"/>
<ellipse cx="500.5" cy="500" rx="195.5" ry="172" fill="black"/>
<path d="M565.371 415C664.507 415 745.148 484.329 745 569.59C745 654.408 663.767 723.147 564.039 723C465.495 722.852 384.558 652.638 385.002 567.672C385.594 483.887 466.826 415 565.371 415ZM673.533 569.442C673.533 516.929 626.628 476.364 565.667 476.364C504.409 476.364 457.061 516.487 457.061 568.705C457.061 621.218 503.965 661.783 564.927 661.783C626.184 661.783 673.385 621.661 673.533 569.442Z" fill="white"/>
<path d="M674 569.872C674 622.535 626.536 663.148 565.129 663C504.019 663 457 622.089 457 569.128C457 516.465 504.464 475.852 565.871 476C626.981 476 674 516.911 674 569.872Z" fill="black"/>
<path d="M949 484C818.333 596.5 455.8 754 51 484L281 778L648 827.5L805 708.5L949 563V484Z" fill="white"/>
<path d="M51 484C175 414 528.2 316 949 484V399.5L805 287L539 173L220 212.5L51 484Z" fill="white"/>
</g>
<defs>
<clipPath id="clip0_4715_322">
<rect width="1000" height="1000" fill="white"/>
</clipPath>
</defs>
</svg>
