<svg width="1000" height="1000" viewBox="0 0 1000 1000" fill="none" xmlns="http://www.w3.org/2000/svg">
<g clip-path="url(#clip0_4717_376)">
<rect width="1000" height="1000" fill="white"/>
<circle cx="500" cy="500" r="500" fill="white"/>
<path d="M69 490.993C69 487.905 69 484.816 69 481.727C72.0917 478.786 75.4779 476.138 78.1279 472.903C120.97 419.66 171.468 372.742 232.125 334.354C342.838 264.197 464.887 235.517 600.628 263.756C709.721 286.553 795.848 341.414 868.43 413.041C890.66 434.956 910.241 458.783 931 481.727C931 484.816 931 487.905 931 490.993C927.908 494.523 924.522 498.053 921.872 501.877C874.76 569.534 816.607 628.807 742.405 675.872C599.892 766.326 435.442 770.738 287.481 687.785C234.628 658.075 188.252 621.747 148.207 579.829C120.529 551.002 95.206 520.556 69 490.993ZM500.074 346.562C402.022 346.562 321.048 415.248 320.607 498.789C320.165 583.653 400.697 653.516 498.749 653.663C597.978 653.81 678.657 585.124 678.804 500.701C678.952 415.689 598.714 346.562 500.074 346.562Z" fill="black"/>
<ellipse cx="500.5" cy="500" rx="195.5" ry="172" fill="black"/>
<path d="M500.371 346C599.507 346 680.148 415.329 680 500.59C680 585.408 598.767 654.147 499.039 654C400.495 653.852 319.558 583.638 320.002 498.672C320.594 414.887 401.826 346 500.371 346ZM608.533 500.442C608.533 447.929 561.628 407.364 500.667 407.364C439.409 407.364 392.061 447.487 392.061 499.705C392.061 552.218 438.965 592.783 499.927 592.783C561.184 592.783 608.385 552.661 608.533 500.442Z" fill="white"/>
<path d="M609 500.872C609 553.535 561.536 594.148 500.129 594C439.019 594 392 553.089 392 500.128C392 447.465 439.464 406.852 500.871 407C561.981 407 609 447.911 609 500.872Z" fill="black"/>
<path d="M949 484C818.333 596.5 455.8 754 51 484L281 778L648 827.5L805 708.5L949 563V484Z" fill="white"/>
<path d="M51 484C175 414 528.2 316 949 484V399.5L805 287L539 173L220 212.5L51 484Z" fill="white"/>
</g>
<defs>
<clipPath id="clip0_4717_376">
<rect width="1000" height="1000" fill="white"/>
</clipPath>
</defs>
</svg>
