<svg width="1000" height="1000" viewBox="0 0 1000 1000" fill="none" xmlns="http://www.w3.org/2000/svg">
<g clip-path="url(#clip0_4715_329)">
<rect width="1000" height="1000" fill="white"/>
<circle cx="500" cy="500" r="500" fill="white"/>
<path d="M69 490.993C69 487.905 69 484.816 69 481.727C72.0917 478.786 75.4779 476.138 78.1279 472.903C120.97 419.66 171.468 372.742 232.125 334.354C342.838 264.197 464.887 235.517 600.628 263.756C709.721 286.553 795.848 341.414 868.43 413.041C890.66 434.956 910.241 458.783 931 481.727C931 484.816 931 487.905 931 490.993C927.908 494.523 924.522 498.053 921.872 501.877C874.76 569.534 816.607 628.807 742.405 675.872C599.892 766.326 435.442 770.738 287.481 687.785C234.628 658.075 188.252 621.747 148.207 579.829C120.529 551.002 95.206 520.556 69 490.993ZM500.074 346.562C402.022 346.562 321.048 415.248 320.607 498.789C320.165 583.653 400.697 653.516 498.749 653.663C597.978 653.81 678.657 585.124 678.804 500.701C678.952 415.689 598.714 346.562 500.074 346.562Z" fill="black"/>
<ellipse cx="500.5" cy="500" rx="195.5" ry="172" fill="black"/>
<path d="M592.371 406C691.507 406 772.148 475.329 772 560.59C772 645.408 690.767 714.147 591.039 714C492.495 713.852 411.558 643.638 412.002 558.672C412.594 474.887 493.826 406 592.371 406ZM700.533 560.442C700.533 507.929 653.628 467.364 592.667 467.364C531.409 467.364 484.061 507.487 484.061 559.705C484.061 612.218 530.965 652.783 591.927 652.783C653.184 652.783 700.385 612.661 700.533 560.442Z" fill="white"/>
<path d="M701 560.872C701 613.535 653.536 654.148 592.129 654C531.019 654 484 613.089 484 560.128C484 507.465 531.464 466.852 592.871 467C653.981 467 701 507.911 701 560.872Z" fill="black"/>
<path d="M949 484C818.333 596.5 455.8 754 51 484L281 778L648 827.5L805 708.5L949 563V484Z" fill="white"/>
<path d="M51 484C175 414 528.2 316 949 484V399.5L805 287L539 173L220 212.5L51 484Z" fill="white"/>
</g>
<defs>
<clipPath id="clip0_4715_329">
<rect width="1000" height="1000" fill="white"/>
</clipPath>
</defs>
</svg>
