<svg width="64" height="64" viewBox="0 0 64 64" fill="none" xmlns="http://www.w3.org/2000/svg">
<g clip-path="url(#clip0_4743_1648)">
<path d="M0 42.6621H64V63.9996H0V42.6621Z" fill="#1EB53A"/>
<path d="M0 0H64V21.3375H0V0Z" fill="#0099B5"/>
<path d="M0 20.4746H64V43.5246H0V20.4746Z" fill="#CE1126"/>
<path d="M0 21.75H64V42.25H0V21.75Z" fill="white"/>
<path d="M17.925 17.9125C22.1638 17.9125 25.6 14.4763 25.6 10.2375C25.6 5.99871 22.1638 2.5625 17.925 2.5625C13.6862 2.5625 10.25 5.99871 10.25 10.2375C10.25 14.4763 13.6862 17.9125 17.925 17.9125Z" fill="white"/>
<path d="M20.4719 17.9125C24.7107 17.9125 28.1469 14.4763 28.1469 10.2375C28.1469 5.99871 24.7107 2.5625 20.4719 2.5625C16.2331 2.5625 12.7969 5.99871 12.7969 10.2375C12.7969 14.4763 16.2331 17.9125 20.4719 17.9125Z" fill="#0099B5"/>
<path d="M34.8145 14.8379L34.3281 16.2971L35.0705 16.5531" fill="white"/>
<path d="M34.8183 14.8379L35.3047 16.2971L34.5623 16.5531" fill="white"/>
<path d="M36.2753 15.9001L34.7372 15.8884L34.7232 16.6736" fill="white"/>
<path d="M36.2716 15.9007L35.0341 16.8142L34.5612 16.1872" fill="white"/>
<path d="M33.3534 15.8987L34.5909 16.8122L35.0638 16.1853" fill="white"/>
<path d="M33.3497 15.8981L34.8878 15.8865L34.9018 16.6716" fill="white"/>
<path d="M35.7159 17.616L35.2517 16.1496L34.5006 16.3788" fill="white"/>
<path d="M35.7138 17.6164L34.4626 16.7218L34.9128 16.0783" fill="white"/>
<path d="M33.9112 17.6164L35.1624 16.7218L34.7122 16.0783" fill="white"/>
<path d="M33.9091 17.616L34.3733 16.1496L35.1244 16.3788" fill="white"/>
<path d="M34.8145 8.69531L34.3281 10.1545L35.0705 10.4105" fill="white"/>
<path d="M34.8183 8.69531L35.3047 10.1545L34.5623 10.4105" fill="white"/>
<path d="M36.2753 9.75752L34.7372 9.74584L34.7232 10.531" fill="white"/>
<path d="M36.2716 9.75811L35.0341 10.6716L34.5612 10.0447" fill="white"/>
<path d="M33.3534 9.75616L34.5909 10.6697L35.0638 10.0427" fill="white"/>
<path d="M33.3497 9.75556L34.8878 9.74389L34.9018 10.5291" fill="white"/>
<path d="M35.7159 11.4734L35.2517 10.007L34.5006 10.2362" fill="white"/>
<path d="M35.7138 11.4739L34.4626 10.5792L34.9128 9.93577" fill="white"/>
<path d="M33.9112 11.4739L35.1624 10.5792L34.7122 9.93577" fill="white"/>
<path d="M33.9091 11.4734L34.3733 10.007L35.1244 10.2362" fill="white"/>
<path d="M34.8145 2.55078L34.3281 4.00998L35.0705 4.26598" fill="white"/>
<path d="M34.8183 2.55078L35.3047 4.00998L34.5623 4.26598" fill="white"/>
<path d="M36.2753 3.61298L34.7372 3.60131L34.7232 4.38648" fill="white"/>
<path d="M36.2716 3.61358L35.0341 4.52709L34.5612 3.90013" fill="white"/>
<path d="M33.3534 3.61162L34.5909 4.52514L35.0638 3.89818" fill="white"/>
<path d="M33.3497 3.61103L34.8878 3.59936L34.9018 4.38453" fill="white"/>
<path d="M35.7159 5.32887L35.2517 3.86245L34.5006 4.09171" fill="white"/>
<path d="M35.7138 5.32934L34.4626 4.43472L34.9128 3.79124" fill="white"/>
<path d="M33.9112 5.32934L35.1624 4.43472L34.7122 3.79124" fill="white"/>
<path d="M33.9091 5.32887L34.3733 3.86245L35.1244 4.09171" fill="white"/>
<path d="M40.9552 14.8379L40.4688 16.2971L41.2112 16.5531" fill="white"/>
<path d="M40.9589 14.8379L41.4453 16.2971L40.7029 16.5531" fill="white"/>
<path d="M42.4159 15.9001L40.8778 15.8884L40.8638 16.6736" fill="white"/>
<path d="M42.4122 15.9007L41.1747 16.8142L40.7018 16.1872" fill="white"/>
<path d="M39.4941 15.8987L40.7315 16.8122L41.2044 16.1853" fill="white"/>
<path d="M39.4903 15.8981L41.0284 15.8865L41.0425 16.6716" fill="white"/>
<path d="M41.8565 17.616L41.3923 16.1496L40.6412 16.3788" fill="white"/>
<path d="M41.8544 17.6164L40.6032 16.7218L41.0534 16.0783" fill="white"/>
<path d="M40.0518 17.6164L41.303 16.7218L40.8529 16.0783" fill="white"/>
<path d="M40.0498 17.616L40.5139 16.1496L41.265 16.3788" fill="white"/>
<path d="M40.9552 8.69531L40.4688 10.1545L41.2112 10.4105" fill="white"/>
<path d="M40.9589 8.69531L41.4453 10.1545L40.7029 10.4105" fill="white"/>
<path d="M42.4159 9.75752L40.8778 9.74584L40.8638 10.531" fill="white"/>
<path d="M42.4122 9.75811L41.1747 10.6716L40.7018 10.0447" fill="white"/>
<path d="M39.4941 9.75616L40.7315 10.6697L41.2044 10.0427" fill="white"/>
<path d="M39.4903 9.75556L41.0284 9.74389L41.0425 10.5291" fill="white"/>
<path d="M41.8565 11.4734L41.3923 10.007L40.6412 10.2362" fill="white"/>
<path d="M41.8544 11.4739L40.6032 10.5792L41.0534 9.93577" fill="white"/>
<path d="M40.0518 11.4739L41.303 10.5792L40.8529 9.93577" fill="white"/>
<path d="M40.0498 11.4734L40.5139 10.007L41.265 10.2362" fill="white"/>
<path d="M40.9552 2.55078L40.4688 4.00998L41.2112 4.26598" fill="white"/>
<path d="M40.9589 2.55078L41.4453 4.00998L40.7029 4.26598" fill="white"/>
<path d="M42.4159 3.61298L40.8778 3.60131L40.8638 4.38648" fill="white"/>
<path d="M42.4122 3.61358L41.1747 4.52709L40.7018 3.90013" fill="white"/>
<path d="M39.4941 3.61162L40.7315 4.52514L41.2044 3.89818" fill="white"/>
<path d="M39.4903 3.61103L41.0284 3.59936L41.0425 4.38453" fill="white"/>
<path d="M41.8565 5.32887L41.3923 3.86245L40.6412 4.09171" fill="white"/>
<path d="M41.8544 5.32934L40.6032 4.43472L41.0534 3.79124" fill="white"/>
<path d="M40.0518 5.32934L41.303 4.43472L40.8529 3.79124" fill="white"/>
<path d="M40.0498 5.32887L40.5139 3.86245L41.265 4.09171" fill="white"/>
<path d="M47.1036 14.8379L46.6172 16.2971L47.3596 16.5531" fill="white"/>
<path d="M47.1073 14.8379L47.5938 16.2971L46.8513 16.5531" fill="white"/>
<path d="M48.5644 15.9001L47.0263 15.8884L47.0122 16.6736" fill="white"/>
<path d="M48.5606 15.9007L47.3232 16.8142L46.8503 16.1872" fill="white"/>
<path d="M45.6425 15.8987L46.88 16.8122L47.3529 16.1853" fill="white"/>
<path d="M45.6388 15.8981L47.1768 15.8865L47.1909 16.6716" fill="white"/>
<path d="M48.0049 17.616L47.5407 16.1496L46.7897 16.3788" fill="white"/>
<path d="M48.0029 17.6164L46.7517 16.7218L47.2018 16.0783" fill="white"/>
<path d="M46.2002 17.6164L47.4514 16.7218L47.0013 16.0783" fill="white"/>
<path d="M46.1982 17.616L46.6624 16.1496L47.4135 16.3788" fill="white"/>
<path d="M47.1036 8.69531L46.6172 10.1545L47.3596 10.4105" fill="white"/>
<path d="M47.1073 8.69531L47.5938 10.1545L46.8513 10.4105" fill="white"/>
<path d="M48.5644 9.75752L47.0263 9.74584L47.0122 10.531" fill="white"/>
<path d="M48.5606 9.75811L47.3232 10.6716L46.8503 10.0447" fill="white"/>
<path d="M45.6425 9.75616L46.88 10.6697L47.3529 10.0427" fill="white"/>
<path d="M45.6388 9.75556L47.1768 9.74389L47.1909 10.5291" fill="white"/>
<path d="M48.0049 11.4734L47.5407 10.007L46.7897 10.2362" fill="white"/>
<path d="M48.0029 11.4739L46.7517 10.5792L47.2018 9.93577" fill="white"/>
<path d="M46.2002 11.4739L47.4514 10.5792L47.0013 9.93577" fill="white"/>
<path d="M46.1982 11.4734L46.6624 10.007L47.4135 10.2362" fill="white"/>
<path d="M47.1036 2.55078L46.6172 4.00998L47.3596 4.26598" fill="white"/>
<path d="M47.1073 2.55078L47.5938 4.00998L46.8513 4.26598" fill="white"/>
<path d="M48.5644 3.61298L47.0263 3.60131L47.0122 4.38648" fill="white"/>
<path d="M48.5606 3.61358L47.3232 4.52709L46.8503 3.90013" fill="white"/>
<path d="M45.6425 3.61162L46.88 4.52514L47.3529 3.89818" fill="white"/>
<path d="M45.6388 3.61103L47.1768 3.59936L47.1909 4.38453" fill="white"/>
<path d="M48.0049 5.32887L47.5407 3.86245L46.7897 4.09171" fill="white"/>
<path d="M48.0029 5.32934L46.7517 4.43472L47.2018 3.79124" fill="white"/>
<path d="M46.2002 5.32934L47.4514 4.43472L47.0013 3.79124" fill="white"/>
<path d="M46.1982 5.32887L46.6624 3.86245L47.4135 4.09171" fill="white"/>
<path d="M22.5255 14.8379L22.0391 16.2971L22.7815 16.5531" fill="white"/>
<path d="M22.5292 14.8379L23.0156 16.2971L22.2732 16.5531" fill="white"/>
<path d="M23.9862 15.9001L22.4482 15.8884L22.4341 16.6736" fill="white"/>
<path d="M23.9825 15.9007L22.745 16.8142L22.2721 16.1872" fill="white"/>
<path d="M21.0644 15.8987L22.3018 16.8122L22.7747 16.1853" fill="white"/>
<path d="M21.0606 15.8981L22.5987 15.8865L22.6128 16.6716" fill="white"/>
<path d="M23.4268 17.616L22.9626 16.1496L22.2115 16.3788" fill="white"/>
<path d="M23.4248 17.6164L22.1736 16.7218L22.6237 16.0783" fill="white"/>
<path d="M21.6221 17.6164L22.8733 16.7218L22.4232 16.0783" fill="white"/>
<path d="M21.6201 17.616L22.0843 16.1496L22.8353 16.3788" fill="white"/>
<path d="M28.6661 14.8379L28.1797 16.2971L28.9221 16.5531" fill="white"/>
<path d="M28.6698 14.8379L29.1562 16.2971L28.4138 16.5531" fill="white"/>
<path d="M30.1269 15.9001L28.5888 15.8884L28.5747 16.6736" fill="white"/>
<path d="M30.1231 15.9007L28.8857 16.8142L28.4128 16.1872" fill="white"/>
<path d="M27.205 15.8987L28.4425 16.8122L28.9154 16.1853" fill="white"/>
<path d="M27.2013 15.8981L28.7393 15.8865L28.7534 16.6716" fill="white"/>
<path d="M29.5674 17.616L29.1032 16.1496L28.3522 16.3788" fill="white"/>
<path d="M29.5654 17.6164L28.3142 16.7218L28.7643 16.0783" fill="white"/>
<path d="M27.7627 17.6164L29.0139 16.7218L28.5638 16.0783" fill="white"/>
<path d="M27.7607 17.616L28.2249 16.1496L28.976 16.3788" fill="white"/>
<path d="M28.6661 8.69531L28.1797 10.1545L28.9221 10.4105" fill="white"/>
<path d="M28.6698 8.69531L29.1562 10.1545L28.4138 10.4105" fill="white"/>
<path d="M30.1269 9.75752L28.5888 9.74584L28.5747 10.531" fill="white"/>
<path d="M30.1231 9.75811L28.8857 10.6716L28.4128 10.0447" fill="white"/>
<path d="M27.205 9.75616L28.4425 10.6697L28.9154 10.0427" fill="white"/>
<path d="M27.2013 9.75556L28.7393 9.74389L28.7534 10.5291" fill="white"/>
<path d="M29.5674 11.4734L29.1032 10.007L28.3522 10.2362" fill="white"/>
<path d="M29.5654 11.4739L28.3142 10.5792L28.7643 9.93577" fill="white"/>
<path d="M27.7627 11.4739L29.0139 10.5792L28.5638 9.93577" fill="white"/>
<path d="M27.7607 11.4734L28.2249 10.007L28.976 10.2362" fill="white"/>
</g>
<defs>
<clipPath id="clip0_4743_1648">
<rect width="64" height="64" fill="white"/>
</clipPath>
</defs>
</svg>
