<svg width="10" height="10" viewBox="0 0 10 10" fill="none" xmlns="http://www.w3.org/2000/svg">
<path d="M0.182992 0.182993C0.300196 0.0658232 0.459139 1.09733e-06 0.624867 1.09733e-06C0.790594 1.09733e-06 0.949537 0.0658232 1.06674 0.182993L4.99987 4.11612L8.93299 0.182993C8.99065 0.123299 9.05961 0.0756849 9.13586 0.0429293C9.21212 0.0101736 9.29413 -0.00706777 9.37712 -0.0077889C9.4601 -0.00851004 9.5424 0.00730353 9.61921 0.0387291C9.69602 0.0701546 9.76581 0.116563 9.82449 0.175246C9.88317 0.233929 9.92958 0.303711 9.961 0.380521C9.99243 0.457332 10.0082 0.539631 10.0075 0.622618C10.0068 0.705605 9.98956 0.787618 9.95681 0.86387C9.92405 0.940123 9.87644 1.00909 9.81674 1.06674L5.88362 4.99987L9.81674 8.93299C9.93059 9.05087 9.99359 9.20875 9.99216 9.37262C9.99074 9.53649 9.92501 9.69325 9.80913 9.80913C9.69325 9.92501 9.53649 9.99074 9.37262 9.99216C9.20874 9.99359 9.05087 9.93059 8.93299 9.81674L4.99987 5.88362L1.06674 9.81674C0.948865 9.93059 0.790989 9.99359 0.627116 9.99216C0.463243 9.99074 0.306485 9.92501 0.190605 9.80913C0.0747249 9.69325 0.00899427 9.53649 0.00757026 9.37262C0.00614625 9.20875 0.0691428 9.05087 0.182992 8.93299L4.11612 4.99987L0.182992 1.06674C0.0658221 0.949538 0 0.790595 0 0.624868C0 0.45914 0.0658221 0.300197 0.182992 0.182993Z" fill="white"/>
</svg>
