<svg width="11" height="10" viewBox="0 0 11 10" fill="none" xmlns="http://www.w3.org/2000/svg">
<g clip-path="url(#clip0_4607_66)">
<path d="M10.6071 0H0.107143C0.0482143 0 0 0.0482143 0 0.107143V0.964286C0 1.02321 0.0482143 1.07143 0.107143 1.07143H10.6071C10.6661 1.07143 10.7143 1.02321 10.7143 0.964286V0.107143C10.7143 0.0482143 10.6661 0 10.6071 0ZM10.6071 8.35714H0.107143C0.0482143 8.35714 0 8.40536 0 8.46429V9.32143C0 9.38036 0.0482143 9.42857 0.107143 9.42857H10.6071C10.6661 9.42857 10.7143 9.38036 10.7143 9.32143V8.46429C10.7143 8.40536 10.6661 8.35714 10.6071 8.35714ZM10.6071 4.17857H0.107143C0.0482143 4.17857 0 4.22679 0 4.28571V5.14286C0 5.20179 0.0482143 5.25 0.107143 5.25H10.6071C10.6661 5.25 10.7143 5.20179 10.7143 5.14286V4.28571C10.7143 4.22679 10.6661 4.17857 10.6071 4.17857Z" fill="black"/>
</g>
<defs>
<clipPath id="clip0_4607_66">
<rect width="11" height="10" fill="white"/>
</clipPath>
</defs>
</svg>
