<svg width="205" height="204" viewBox="0 0 205 204" fill="none" xmlns="http://www.w3.org/2000/svg">
<path d="M171.161 143.279C192.973 123.942 205 102 205 102C205 102 166.562 31.875 102.5 31.875C89.4904 31.875 77.5376 34.7669 66.7489 39.3763L76.6257 49.2049C84.6885 46.323 93.3315 44.625 102.5 44.625C129.655 44.625 152.199 59.5193 168.714 75.9531C176.86 84.0595 183.191 92.2071 187.482 98.3333C188.414 99.6638 189.245 100.893 189.975 102C189.245 103.107 188.414 104.336 187.482 105.667C183.191 111.793 176.86 119.94 168.714 128.047C166.602 130.148 164.392 132.225 162.086 134.248L171.161 143.279Z" fill="black"/>
<path d="M144.749 116.996C146.429 112.309 147.344 107.261 147.344 102C147.344 77.3543 127.267 57.375 102.5 57.375C97.2133 57.375 92.1403 58.2854 87.4307 59.9571L97.9667 70.4418C99.4476 70.233 100.961 70.125 102.5 70.125C120.19 70.125 134.531 84.3959 134.531 102C134.531 103.531 134.423 105.037 134.213 106.511L144.749 116.996Z" fill="black"/>
<path d="M107.034 133.558L117.57 144.043C112.86 145.715 107.787 146.625 102.5 146.625C77.7335 146.625 57.6562 126.646 57.6562 102C57.6562 96.739 58.5711 91.6906 60.2512 87.0039L70.7871 97.4884C70.5773 98.9623 70.4688 100.469 70.4688 102C70.4688 119.604 84.8096 133.875 102.5 133.875C104.039 133.875 105.553 133.767 107.034 133.558Z" fill="black"/>
<path d="M42.9147 69.752C40.6086 71.7752 38.3982 73.8516 36.2864 75.9531C28.1402 84.0595 21.8089 92.2071 17.5182 98.3333C16.5863 99.6638 15.7546 100.893 15.0252 102C15.7546 103.107 16.5863 104.336 17.5182 105.667C21.8089 111.793 28.1402 119.94 36.2864 128.047C52.8007 144.481 75.3454 159.375 102.5 159.375C111.669 159.375 120.312 157.677 128.375 154.795L138.251 164.624C127.463 169.233 115.51 172.125 102.5 172.125C38.4375 172.125 0 102 0 102C0 102 12.0273 80.0575 33.8393 60.7209L42.9147 69.752Z" fill="black"/>
<path d="M174.845 183.008L21.0951 30.0078L30.1549 20.9922L183.905 173.992L174.845 183.008Z" fill="black"/>
</svg>
