<svg width="701" height="651" viewBox="0 0 701 651" fill="none" xmlns="http://www.w3.org/2000/svg">
<path d="M215.95 65.526C215.95 55.526 216.05 46.026 215.95 36.626C215.85 27.126 218.45 18.626 224.75 11.326C233.35 1.12601 247.85 -2.57399 262.15 1.82601C273.75 5.42601 283.85 18.026 284.45 30.526C284.95 40.026 284.75 49.526 284.85 59.026C284.85 60.826 284.85 62.626 284.85 65.126C287.55 65.126 289.65 65.126 291.75 65.126C348.55 65.126 405.45 65.126 462.25 65.126C474.75 65.126 485.55 68.826 493.35 79.026C501.35 89.626 502.95 101.326 497.55 113.426C492.05 125.726 482.35 133.326 468.55 133.826C452.45 134.326 436.25 134.126 420.05 134.026C416.95 134.026 415.45 134.826 414.35 137.926C388.75 215.726 353.95 288.926 306.15 355.726C305.55 356.526 305.15 357.426 304.45 358.426C322.15 377.926 340.65 396.226 361.25 412.526C373.85 422.426 378.55 437.626 373.35 452.226C368.45 465.926 355.05 475.226 340.15 474.926C332.05 474.726 324.55 472.126 318.65 466.726C300.25 450.026 282.15 433.126 264.05 416.126C262.75 414.926 261.75 413.326 261.75 414.226C246.65 428.326 231.55 442.326 216.55 456.626C185.05 486.526 151.55 513.926 114.95 537.326C107.75 541.926 99.9499 546.326 91.8499 548.726C76.1499 553.226 60.1499 544.626 53.3499 529.426C46.6499 514.426 51.2499 497.026 64.7499 487.726C78.1499 478.526 92.2499 470.126 105.35 460.426C144.55 431.326 180.05 398.126 212.55 361.726C213.25 361.026 213.75 360.226 214.55 359.226C208.45 351.226 202.25 343.426 196.45 335.426C172.25 302.326 149.85 268.026 131.75 231.126C127.85 223.126 124.55 215.026 125.85 205.726C127.95 190.526 139.15 178.426 153.35 175.826C169.05 173.026 183.35 179.526 190.35 194.026C205.55 225.626 224.25 255.126 244.35 283.826C248.95 290.326 253.75 296.726 258.75 303.526C294.55 251.026 321.15 194.626 342.75 134.526C339.75 134.526 337.55 134.526 335.25 134.526C236.55 134.526 137.95 134.526 39.2499 134.526C26.8499 134.526 15.8499 131.426 7.84992 121.326C-0.550085 110.726 -2.25008 98.826 2.94992 86.526C8.04992 74.426 17.5499 67.426 30.8499 65.926C33.6499 65.626 36.5499 65.626 39.3499 65.626C96.0499 65.626 152.65 65.626 209.35 65.626C211.35 65.526 213.35 65.526 215.95 65.526Z" fill="white"/>
<path d="M664.952 650.026C649.852 648.926 639.252 641.126 633.352 626.826C625.052 606.726 616.452 586.626 608.552 566.326C606.452 561.026 603.952 559.226 598.152 559.326C549.152 559.626 500.152 559.526 451.152 559.326C446.652 559.326 444.552 560.626 442.752 564.926C434.452 585.626 425.952 606.226 417.252 626.726C409.252 645.826 391.552 654.226 373.052 647.926C356.052 642.126 345.652 623.026 351.752 606.126C359.052 585.826 367.852 566.026 376.052 546.026C414.752 452.226 453.452 358.426 492.252 264.626C499.352 247.426 512.652 238.526 529.452 240.626C543.952 242.426 552.952 251.226 558.352 264.426C566.052 283.426 573.952 302.326 581.752 321.226C620.152 414.226 658.652 507.226 696.952 600.326C706.252 622.926 694.452 645.526 671.352 649.626C669.452 649.826 667.352 649.826 664.952 650.026ZM473.752 490.226C508.552 490.226 542.352 490.226 576.852 490.226C559.652 448.526 542.752 407.426 525.252 365.126C507.952 407.426 490.952 448.526 473.752 490.226Z" fill="white"/>
</svg>
