<svg width="701" height="651" viewBox="0 0 701 651" fill="none" xmlns="http://www.w3.org/2000/svg">
<path d="M216.598 65.6998C216.598 55.6998 216.698 46.1998 216.598 36.7998C216.498 27.2998 219.098 18.7998 225.398 11.4998C233.998 1.29984 248.498 -2.40016 262.798 1.99984C274.398 5.59984 284.498 18.1998 285.098 30.6998C285.598 40.1998 285.398 49.6998 285.498 59.1998C285.498 60.9998 285.498 62.7998 285.498 65.2998C288.198 65.2998 290.298 65.2998 292.398 65.2998C349.198 65.2998 406.098 65.2998 462.898 65.2998C475.398 65.2998 486.198 68.9998 493.998 79.1998C501.998 89.7998 503.598 101.5 498.198 113.6C492.698 125.9 482.998 133.5 469.198 134C453.098 134.5 436.898 134.3 420.698 134.2C417.598 134.2 416.098 135 414.998 138.1C389.398 215.9 354.598 289.1 306.798 355.9C306.198 356.7 305.798 357.6 305.098 358.6C322.798 378.1 341.298 396.4 361.898 412.7C374.498 422.6 379.198 437.8 373.998 452.4C369.098 466.1 355.698 475.4 340.798 475.1C332.698 474.9 325.198 472.3 319.298 466.9C300.898 450.2 282.798 433.3 264.698 416.3C263.398 415.1 262.398 413.5 262.398 414.4C247.298 428.5 232.198 442.5 217.198 456.8C185.698 486.7 152.198 514.1 115.598 537.5C108.398 542.1 100.598 546.5 92.4984 548.9C76.7984 553.4 60.7984 544.8 53.9984 529.6C47.2984 514.6 51.8983 497.2 65.3983 487.9C78.7983 478.7 92.8984 470.3 105.998 460.6C145.198 431.5 180.698 398.3 213.198 361.9C213.898 361.2 214.398 360.4 215.198 359.4C209.098 351.4 202.898 343.6 197.098 335.6C172.898 302.5 150.498 268.2 132.398 231.3C128.498 223.3 125.198 215.2 126.498 205.9C128.598 190.7 139.798 178.6 153.998 176C169.698 173.2 183.998 179.7 190.998 194.2C206.198 225.8 224.898 255.3 244.998 284C249.598 290.5 254.398 296.9 259.398 303.7C295.198 251.2 321.798 194.8 343.398 134.7C340.398 134.7 338.198 134.7 335.898 134.7C237.198 134.7 138.598 134.7 39.8983 134.7C27.4983 134.7 16.4984 131.6 8.49835 121.5C0.0983529 110.9 -1.60164 98.9999 3.59836 86.6999C8.69836 74.5999 18.1984 67.5998 31.4984 66.0998C34.2984 65.7998 37.1984 65.7998 39.9984 65.7998C96.6984 65.7998 153.298 65.7998 209.998 65.7998C211.998 65.6998 213.998 65.6998 216.598 65.6998Z" fill="black"/>
<path d="M665.6 650.2C650.5 649.1 639.9 641.3 634 627C625.7 606.9 617.1 586.8 609.2 566.5C607.1 561.2 604.6 559.4 598.8 559.5C549.8 559.8 500.8 559.7 451.8 559.5C447.3 559.5 445.2 560.8 443.4 565.1C435.1 585.8 426.6 606.4 417.9 626.9C409.9 646 392.2 654.4 373.7 648.1C356.7 642.3 346.3 623.2 352.4 606.3C359.7 586 368.5 566.2 376.7 546.2C415.4 452.4 454.1 358.6 492.9 264.8C500 247.6 513.3 238.7 530.1 240.8C544.6 242.6 553.6 251.4 559 264.6C566.7 283.6 574.6 302.5 582.4 321.4C620.8 414.4 659.3 507.4 697.6 600.5C706.9 623.1 695.1 645.7 672 649.8C670.1 650 668 650 665.6 650.2ZM474.4 490.4C509.2 490.4 543 490.4 577.5 490.4C560.3 448.7 543.4 407.6 525.9 365.3C508.6 407.6 491.6 448.7 474.4 490.4Z" fill="black"/>
</svg>
