<svg width="205" height="204" viewBox="0 0 205 204" fill="none" xmlns="http://www.w3.org/2000/svg">
<path d="M205 102C205 102 166.562 31.875 102.5 31.875C38.4375 31.875 0 102 0 102C0 102 38.4375 172.125 102.5 172.125C166.562 172.125 205 102 205 102ZM15.0252 102C15.7546 100.893 16.5863 99.6638 17.5182 98.3333C21.8089 92.2071 28.1402 84.0595 36.2864 75.9531C52.8007 59.5193 75.3454 44.625 102.5 44.625C129.655 44.625 152.199 59.5193 168.714 75.9531C176.86 84.0595 183.191 92.2071 187.482 98.3333C188.414 99.6638 189.245 100.893 189.975 102C189.245 103.107 188.414 104.336 187.482 105.667C183.191 111.793 176.86 119.94 168.714 128.047C152.199 144.481 129.655 159.375 102.5 159.375C75.3454 159.375 52.8007 144.481 36.2864 128.047C28.1402 119.94 21.8089 111.793 17.5182 105.667C16.5863 104.336 15.7546 103.107 15.0252 102Z" fill="white"/>
<path d="M102.5 70.125C84.8096 70.125 70.4688 84.3959 70.4688 102C70.4688 119.604 84.8096 133.875 102.5 133.875C120.19 133.875 134.531 119.604 134.531 102C134.531 84.3959 120.19 70.125 102.5 70.125ZM57.6562 102C57.6562 77.3543 77.7335 57.375 102.5 57.375C127.267 57.375 147.344 77.3543 147.344 102C147.344 126.646 127.267 146.625 102.5 146.625C77.7335 146.625 57.6562 126.646 57.6562 102Z" fill="white"/>
</svg>
